<?xml version="1.0" standalone="no"?>
<!DOCTYPE svg PUBLIC "-//W3C//DTD SVG 20010904//EN"
 "http://www.w3.org/TR/2001/REC-SVG-20010904/DTD/svg10.dtd">
<svg version="1.0" xmlns="http://www.w3.org/2000/svg"
 width="543.000000pt" height="486.000000pt" viewBox="0 0 543.000000 486.000000"
 preserveAspectRatio="xMidYMid meet">

<g transform="translate(0.000000,486.000000) scale(0.100000,-0.100000)"
fill="#000000" stroke="none">
<path d="M2335 4654 c-60 -8 -119 -18 -130 -23 -11 -6 -38 -13 -61 -16 -89
-14 -291 -87 -400 -145 -32 -18 -90 -53 -127 -79 -38 -25 -78 -51 -89 -57 -28
-16 -92 -74 -81 -74 4 0 1 -6 -8 -13 -25 -19 -136 -174 -162 -225 -42 -84 -52
-145 -52 -322 0 -192 27 -284 130 -440 24 -36 61 -83 83 -105 73 -74 150 -145
157 -145 4 0 30 -16 56 -35 27 -19 52 -35 55 -35 4 0 50 -22 103 -48 114 -57
270 -104 436 -132 137 -22 349 -40 415 -35 259 22 329 30 420 51 297 67 474
156 678 339 214 192 303 521 224 825 -14 54 -72 166 -117 226 -28 37 -165 174
-174 174 -3 0 -25 15 -48 33 -66 51 -178 113 -278 152 -38 15 -83 33 -100 40
-79 33 -297 81 -425 95 -136 14 -370 11 -505 -6z m645 -93 c69 -12 157 -35
195 -50 39 -16 86 -32 105 -36 70 -15 310 -142 310 -164 0 -7 -113 -46 -184
-62 -55 -14 -264 -5 -280 11 -5 5 -19 10 -31 10 -11 0 -39 9 -60 20 -113 59
-256 92 -379 89 -129 -3 -229 -34 -289 -87 -11 -10 -49 -22 -85 -28 -37 -7
-94 -20 -126 -29 -49 -13 -73 -15 -135 -7 -92 12 -254 53 -298 76 -18 9 -39
16 -48 16 -8 0 -15 3 -15 8 0 9 82 57 93 54 4 -1 7 2 7 8 0 6 9 10 20 10 11 0
20 5 20 10 0 6 7 10 15 10 8 0 29 8 47 18 45 25 222 88 283 101 28 5 75 15
105 21 171 36 525 36 730 1z m-172 -257 c35 -9 106 -33 158 -54 149 -61 213
-73 356 -68 111 4 135 9 243 45 l119 40 56 -56 c62 -62 129 -156 155 -217 17
-39 45 -123 45 -135 0 -4 -33 -15 -72 -24 -99 -24 -363 -109 -432 -140 -31
-14 -64 -25 -74 -25 -9 0 -69 46 -132 101 -165 145 -374 318 -431 358 -39 27
-61 36 -107 39 -73 5 -113 -13 -242 -109 -52 -39 -105 -75 -118 -80 -54 -21
-152 -3 -152 28 0 19 162 185 225 231 104 77 259 102 403 66z m-1099 -64 c224
-76 359 -95 471 -65 97 26 98 22 16 -67 -42 -46 -76 -90 -76 -98 0 -32 32 -60
87 -76 85 -25 132 -15 214 42 173 122 193 133 233 139 56 9 97 -9 188 -81 166
-131 504 -428 512 -449 21 -55 -20 -105 -84 -105 -36 0 -49 7 -98 53 -97 90
-164 147 -173 147 -24 0 -1 -32 91 -125 113 -115 121 -136 71 -186 -23 -22
-39 -29 -70 -29 -37 0 -48 7 -125 80 -72 67 -116 96 -116 75 0 -2 34 -44 75
-92 82 -95 90 -120 49 -152 -48 -38 -77 -28 -159 49 -41 39 -79 70 -84 70 -22
0 -9 -25 44 -85 30 -35 55 -68 55 -73 0 -25 -90 -32 -143 -11 -26 11 -27 14
-21 60 12 87 -38 153 -138 183 -10 3 -20 18 -24 33 -18 87 -60 123 -141 123
-38 0 -54 5 -69 21 -42 46 -122 63 -177 38 -19 -9 -30 -7 -58 10 -40 24 -98
27 -139 6 -27 -14 -33 -12 -122 29 -102 48 -261 101 -405 136 -82 19 -93 25
-93 44 1 30 40 122 85 195 42 70 167 201 191 201 8 0 68 -18 133 -40z m-284
-477 c39 -8 90 -22 115 -29 25 -8 53 -16 62 -19 10 -2 32 -10 50 -18 18 -8 49
-20 68 -27 19 -7 54 -21 78 -33 40 -19 42 -22 42 -65 0 -27 8 -59 21 -82 22
-39 82 -80 116 -80 11 0 27 -14 38 -32 29 -51 88 -86 148 -87 17 -1 27 -6 27
-16 0 -8 4 -15 8 -15 5 0 17 -8 28 -18 24 -23 77 -42 115 -42 16 0 29 -4 29
-10 0 -5 24 -25 52 -45 61 -40 93 -43 157 -15 42 19 47 20 103 5 83 -21 118
-19 160 10 23 15 51 25 73 25 49 0 101 26 133 67 15 18 36 33 47 33 55 1 133
58 154 113 8 20 17 27 36 27 36 0 78 23 109 60 22 26 26 42 26 90 l0 58 83 32
c45 17 89 33 97 35 8 2 31 9 50 15 19 7 49 15 65 20 50 14 179 50 199 57 18 5
19 1 12 -76 -7 -82 -43 -200 -71 -231 -8 -9 -15 -21 -15 -26 0 -16 -40 -64
-120 -144 -94 -93 -138 -129 -170 -137 -14 -4 -29 -12 -35 -20 -11 -13 -141
-83 -157 -83 -5 0 -28 -9 -51 -21 -76 -37 -169 -62 -392 -105 -106 -20 -446
-23 -560 -5 -103 17 -269 54 -275 61 -3 4 -26 10 -51 13 -25 3 -59 12 -75 20
-162 78 -304 152 -304 159 0 4 -14 15 -31 24 -72 37 -259 251 -259 297 0 6 -8
26 -18 42 -26 42 -42 113 -42 185 l0 60 28 -5 c15 -4 59 -13 97 -22z m625
-150 c10 -13 20 -29 23 -36 2 -7 16 -2 36 16 62 51 150 30 168 -41 4 -17 10
-21 22 -17 60 25 70 26 105 11 43 -18 59 -51 54 -115 l-3 -45 47 3 c53 3 89
-15 106 -55 40 -87 -32 -178 -122 -153 -35 10 -76 47 -76 68 0 35 -14 41 -55
27 -29 -10 -46 -11 -60 -4 -38 19 -65 51 -65 76 0 19 -4 23 -17 17 -85 -32
-153 10 -153 95 0 32 -10 35 -60 21 -30 -9 -75 11 -91 40 -14 27 -4 82 19 102
36 32 92 27 122 -10z"/>
<path d="M4067 2480 c-16 -5 -35 -14 -43 -21 -8 -6 -14 -8 -14 -3 -1 5 -7 -2
-15 -16 -9 -15 -14 -54 -15 -97 0 -39 -4 -74 -9 -77 -4 -3 -35 4 -67 15 -69
25 -128 21 -198 -10 -42 -20 -116 -95 -116 -119 0 -6 -5 -12 -12 -14 -13 -5
-19 -278 -7 -308 17 -44 26 -58 54 -89 52 -57 103 -81 192 -88 151 -11 262 37
313 137 16 32 18 66 20 325 0 160 3 300 6 312 13 51 -23 73 -89 53z m-161
-361 c6 -5 13 -7 15 -5 3 3 16 -11 29 -31 21 -31 25 -48 25 -112 -1 -88 -19
-132 -65 -156 -94 -49 -179 35 -167 167 8 87 23 120 65 142 27 14 76 12 98 -5z"/>
<path d="M580 2283 c-48 -16 -108 -63 -125 -97 -30 -60 -38 -118 -40 -306 -1
-111 3 -200 8 -207 15 -20 143 -17 151 3 3 9 6 96 6 194 0 108 4 189 11 203
24 53 103 73 149 38 24 -19 25 -20 28 -228 3 -140 8 -210 16 -215 20 -13 144
-9 149 5 2 6 2 69 -1 138 -5 145 4 263 21 252 6 -4 8 0 4 11 -5 12 3 22 26 36
38 24 80 19 115 -13 21 -20 22 -26 22 -223 0 -175 2 -203 16 -208 24 -9 127
-7 143 3 11 7 13 49 12 215 -2 220 -2 218 -33 283 -45 92 -107 128 -224 128
-71 0 -85 -3 -122 -27 -42 -28 -72 -36 -72 -19 0 15 -121 51 -169 51 -25 -1
-66 -8 -91 -17z"/>
<path d="M1538 2285 c-92 -25 -143 -71 -184 -165 -25 -59 -26 -245 -1 -302 28
-62 78 -109 147 -141 55 -25 77 -29 140 -28 41 0 95 7 119 13 79 23 187 142
159 175 -7 9 -37 13 -87 13 -67 0 -82 -3 -111 -25 -37 -27 -95 -33 -133 -14
-42 22 -67 52 -67 81 l0 28 208 2 207 3 3 76 c2 52 -2 84 -12 104 -8 16 -12
33 -9 39 3 6 3 8 -2 4 -4 -4 -17 12 -29 35 -47 89 -216 139 -348 102z m168
-161 c18 -12 44 -53 44 -69 0 -3 -52 -5 -115 -5 -63 0 -115 3 -115 8 1 18 29
55 56 73 32 22 91 18 130 -7z"/>
<path d="M2230 2289 c-74 -15 -143 -54 -177 -102 -57 -82 -67 -131 -64 -332 1
-127 5 -182 14 -187 16 -10 139 -10 155 1 10 6 14 52 16 187 2 130 7 187 17
206 17 34 67 59 112 56 52 -3 57 5 57 92 0 97 -10 103 -130 79z"/>
<path d="M2581 2290 c-25 -5 -49 -14 -55 -20 -5 -5 -17 -10 -26 -10 -22 0 -61
-43 -100 -110 -29 -50 -32 -63 -37 -165 -5 -98 -3 -116 17 -160 34 -78 82
-129 145 -155 47 -19 69 -22 148 -18 78 3 100 8 145 33 30 16 63 43 75 59 11
17 24 33 28 36 4 3 15 27 24 53 22 67 12 77 -77 77 -76 0 -108 -11 -108 -38 0
-23 -32 -58 -61 -67 -41 -13 -87 4 -114 43 -22 33 -25 47 -25 129 0 92 0 93
34 128 29 30 41 35 78 35 48 0 88 -27 88 -59 0 -10 6 -23 13 -28 14 -12 172
-12 183 0 11 11 -13 95 -42 144 -23 40 -35 48 -117 82 -40 16 -163 22 -216 11z"/>
<path d="M3141 2281 c-58 -19 -117 -74 -126 -117 -3 -13 -7 -34 -10 -47 -7
-38 6 -45 84 -48 72 -2 74 -2 88 27 22 42 41 54 88 54 71 0 114 -52 63 -78
-13 -6 -57 -16 -98 -22 -89 -13 -156 -36 -188 -64 -61 -54 -80 -161 -43 -234
24 -47 46 -66 99 -88 65 -25 227 -15 302 19 107 49 137 112 134 277 -4 177
-13 237 -37 264 -66 69 -235 97 -356 57z m209 -388 c0 -18 -4 -33 -10 -33 -5
0 -10 -6 -10 -14 0 -25 -55 -56 -98 -56 -31 0 -43 5 -56 25 -35 53 -8 87 89
113 77 20 85 17 85 -35z"/>
<path d="M4375 2288 c-68 -24 -127 -80 -164 -154 -37 -72 -41 -209 -10 -293
23 -65 88 -143 130 -156 10 -4 19 -10 19 -13 0 -4 11 -9 26 -10 14 -1 34 -7
45 -12 27 -15 172 5 226 31 117 56 182 211 153 368 -6 35 -22 81 -36 102 -13
21 -24 43 -24 48 0 14 -101 80 -140 91 -45 13 -186 12 -225 -2z m209 -179 c46
-54 48 -190 5 -253 -13 -20 -36 -41 -51 -47 -53 -22 -125 10 -157 68 -17 34
-25 127 -12 164 15 45 62 96 92 101 56 7 99 -4 123 -33z"/>
<path d="M3321 1434 c0 -11 3 -14 6 -6 3 7 2 16 -1 19 -3 4 -6 -2 -5 -13z"/>
</g>
</svg>
