<?xml version="1.0" standalone="no"?>
<!DOCTYPE svg PUBLIC "-//W3C//DTD SVG 20010904//EN"
 "http://www.w3.org/TR/2001/REC-SVG-20010904/DTD/svg10.dtd">
<svg version="1.0" xmlns="http://www.w3.org/2000/svg"
 width="842.000000pt" height="541.000000pt" viewBox="0 0 842.000000 541.000000"
 preserveAspectRatio="xMidYMid meet">

<g transform="translate(0.000000,541.000000) scale(0.100000,-0.100000)"
fill="#000000" stroke="none">
<path d="M115 5384 c-22 -15 -57 -43 -77 -62 l-38 -36 0 -2586 0 -2586 32 -31
c18 -17 51 -43 72 -57 l39 -26 4029 0 4029 0 42 29 c51 35 115 102 151 156
l26 40 0 2475 0 2476 -29 45 c-33 51 -108 125 -165 163 l-39 26 -4016 0 -4016
0 -40 -26z m5665 -749 c444 -74 829 -280 1132 -605 266 -284 425 -613 494
-1015 22 -126 24 -439 5 -575 -79 -559 -396 -1054 -872 -1363 -452 -293 -1010
-387 -1536 -258 -267 66 -541 205 -766 389 l-68 55 48 49 47 48 -98 0 -98 0
-43 47 c-25 27 -44 51 -45 56 0 4 87 7 194 7 l195 0 45 59 c25 33 46 61 46 63
0 3 -131 4 -292 4 l-292 0 -33 52 -34 52 363 0 363 0 33 59 c17 32 32 61 32
65 0 3 -195 6 -434 6 l-433 0 -19 47 c-11 27 -20 51 -22 55 -2 5 215 8 481 8
l486 0 20 55 c12 31 21 60 21 65 0 6 -198 10 -533 10 l-533 0 -12 45 c-7 25
-12 49 -12 53 0 4 253 7 562 7 l563 0 11 35 c6 19 14 47 18 63 l6 27 -164 0
c-174 0 -176 0 -176 -50 0 -10 -5 -22 -11 -26 -10 -6 -180 -7 -185 -1 -3 2
102 614 113 667 l8 35 98 3 c91 3 98 1 94 -15 -3 -10 -9 -34 -12 -53 l-7 -35
38 36 c58 55 134 87 174 74 18 -6 18 -7 0 -38 -10 -18 -25 -56 -34 -86 -18
-62 -27 -71 -74 -71 -18 0 -46 -7 -62 -15 -30 -16 -75 -71 -63 -77 5 -3 51 -4
103 -3 l94 1 11 55 c16 76 33 127 61 178 13 24 24 54 24 67 l0 24 -620 0
c-613 0 -620 0 -620 -20 0 -17 7 -20 48 -20 27 0 51 -2 53 -5 3 -2 0 -37 -7
-77 -7 -40 -13 -74 -14 -76 0 -1 -26 -1 -57 0 l-57 3 -33 -190 -33 -190 23
-19 c18 -15 32 -17 73 -12 l52 6 -9 -43 c-5 -23 -11 -52 -14 -64 -7 -29 -53
-43 -147 -43 -86 0 -140 17 -157 48 -21 39 -16 82 49 442 17 96 39 220 49 275
l17 100 691 -4 691 -3 -9 43 c-5 24 -11 54 -14 66 l-5 23 -579 2 -578 3 14 48
14 47 543 0 c298 0 545 3 548 6 3 3 -4 31 -16 62 l-22 57 -503 3 c-276 1 -501
6 -499 10 2 4 12 29 23 55 l20 47 453 0 c248 0 452 2 452 5 0 3 -14 32 -30 65
l-30 60 -386 0 -386 0 30 51 29 50 321 -1 c177 0 322 2 322 6 0 3 -19 32 -41
65 l-42 59 -228 0 c-126 0 -229 3 -229 8 0 4 18 28 41 55 l41 47 134 0 c74 0
134 4 134 9 0 5 -30 36 -67 69 l-66 59 100 80 c310 247 606 365 1043 417 73 9
379 -4 470 -19z m-4217 -1642 c4 -54 10 -156 13 -228 4 -71 10 -138 13 -148 5
-12 40 61 108 225 l101 243 167 3 c156 2 167 1 163 -15 -3 -10 -38 -206 -78
-435 l-74 -418 -94 0 c-84 0 -93 2 -88 18 3 9 25 135 50 278 25 144 50 281 55
304 5 23 6 38 2 34 -4 -5 -66 -150 -137 -321 l-128 -313 -102 0 -102 0 -6 48
c-3 26 -11 151 -17 277 -17 363 -16 363 -78 -4 l-54 -321 -92 0 -92 0 27 158
c15 86 49 282 75 435 l48 277 157 0 157 0 6 -97z m1644 -59 c35 -3 65 -9 67
-13 3 -4 -3 -38 -13 -77 -20 -77 -6 -70 -121 -64 -87 4 -109 0 -137 -24 -24
-21 -26 -26 -15 -50 11 -25 27 -34 153 -89 47 -21 60 -32 78 -69 23 -49 27
-102 10 -163 -35 -130 -181 -189 -407 -166 -146 15 -142 11 -118 111 15 63 11
62 149 41 91 -14 138 -4 164 35 31 47 0 79 -120 124 -61 23 -89 49 -112 102
-44 106 8 234 115 281 72 32 144 37 307 21z m-626 -13 c82 -25 148 -99 149
-167 0 -17 -18 -125 -39 -240 -22 -115 -42 -228 -46 -251 l-7 -43 -84 0 -84 0
0 31 0 30 -29 -21 c-73 -52 -200 -66 -277 -31 -120 54 -141 224 -41 337 67 76
150 104 314 104 79 0 83 1 89 24 8 35 -11 63 -53 77 -48 15 -216 7 -266 -14
-20 -9 -37 -13 -37 -9 0 4 8 38 17 76 21 79 34 91 113 105 66 12 231 7 281 -8z
m1510 7 c66 -22 108 -58 136 -117 25 -50 28 -66 26 -146 0 -49 -6 -102 -12
-117 l-11 -28 -210 0 c-207 0 -210 0 -210 -21 0 -39 34 -79 88 -106 47 -23 61
-25 135 -21 54 3 98 12 130 26 l49 22 -7 -68 c-4 -37 -13 -77 -21 -89 -18 -29
-81 -45 -179 -46 -222 -2 -362 94 -383 261 l-7 57 -53 3 -53 3 3 52 3 52 54 0
53 0 18 56 c34 112 106 184 220 220 64 21 182 24 231 7z m3186 -1350 c59 -48
16 -158 -62 -158 -34 0 -73 30 -85 65 -14 42 2 82 40 103 28 14 84 9 107 -10z"/>
<path d="M4476 2523 c-3 -10 -8 -39 -12 -65 l-6 -48 142 0 c131 0 142 1 135
18 -4 9 -12 38 -18 65 l-12 47 -112 0 c-98 0 -112 -2 -117 -17z"/>
<path d="M2377 2537 c-20 -7 -53 -25 -72 -40 -28 -22 -35 -35 -35 -62 0 -45
22 -65 71 -65 84 0 143 57 151 145 3 29 1 30 -37 32 -22 1 -57 -3 -78 -10z"/>
<path d="M3908 2773 c-26 -16 -68 -79 -68 -102 0 -7 37 -11 115 -11 l115 0 0
25 c0 83 -90 132 -162 88z"/>
<path d="M7184 1579 c-54 -27 -55 -93 -2 -132 24 -18 30 -18 58 -7 35 14 50
37 50 73 0 51 -60 88 -106 66z m62 -40 c3 -6 2 -15 -4 -21 -6 -6 -8 -18 -5
-27 4 -14 2 -13 -10 2 -17 21 -27 22 -27 2 0 -8 -4 -15 -10 -15 -5 0 -10 16
-10 35 0 32 2 35 29 35 17 0 33 -5 37 -11z"/>
<path d="M7200 1530 c0 -5 9 -10 20 -10 11 0 20 5 20 10 0 6 -9 10 -20 10 -11
0 -20 -4 -20 -10z"/>
</g>
</svg>
