<?xml version="1.0" standalone="no"?>
<!DOCTYPE svg PUBLIC "-//W3C//DTD SVG 20010904//EN"
 "http://www.w3.org/TR/2001/REC-SVG-20010904/DTD/svg10.dtd">
<svg version="1.0" xmlns="http://www.w3.org/2000/svg"
 width="675.000000pt" height="480.000000pt" viewBox="0 0 675.000000 480.000000"
 preserveAspectRatio="xMidYMid meet">

<g transform="translate(0.000000,480.000000) scale(0.100000,-0.100000)"
fill="#000000" stroke="none">
<path d="M0 4435 l0 -365 3375 0 3375 0 0 365 0 365 -3375 0 -3375 0 0 -365z"/>
<path d="M4156 3380 c-106 -17 -209 -50 -305 -97 -123 -61 -241 -173 -295
-280 -89 -178 -62 -351 79 -501 80 -86 154 -137 320 -220 77 -38 161 -88 187
-111 79 -70 88 -151 23 -215 -50 -51 -110 -68 -258 -73 -163 -7 -248 7 -406
64 -67 24 -125 42 -128 40 -14 -14 -72 -326 -73 -388 0 -12 30 -24 128 -48
385 -95 707 -77 962 55 146 76 243 167 304 290 58 116 62 273 10 384 -67 142
-162 224 -394 340 -212 106 -280 163 -280 236 0 96 168 165 371 150 58 -4 128
-18 213 -44 69 -22 128 -37 130 -33 9 15 59 381 53 387 -8 8 -95 29 -207 49
-102 19 -352 28 -434 15z"/>
<path d="M5695 3359 c-133 -6 -173 -18 -223 -69 -39 -39 -113 -189 -261 -533
-60 -138 -177 -403 -261 -587 -145 -320 -280 -630 -280 -644 0 -3 114 -6 253
-6 l252 0 64 140 64 140 318 0 318 0 10 -37 c5 -21 20 -83 33 -138 l23 -100
233 -3 c163 -2 232 1 232 9 0 6 -18 88 -39 182 -22 95 -115 503 -207 907 -92
404 -168 736 -168 737 -3 5 -262 7 -361 2z m96 -845 c38 -186 69 -339 69 -341
0 -2 -92 -3 -205 -3 -113 0 -205 4 -205 9 0 5 48 130 106 277 58 148 117 300
131 337 14 37 28 66 30 63 2 -2 35 -156 74 -342z"/>
<path d="M2055 3278 c-33 -73 -146 -362 -280 -718 -92 -244 -176 -440 -189
-440 -2 0 -16 63 -31 141 -32 159 -28 152 -202 366 -155 190 -480 498 -490
466 -2 -6 62 -248 141 -539 80 -291 176 -641 214 -779 l68 -250 270 -3 270 -2
56 132 c64 153 588 1369 672 1561 31 71 56 133 56 138 0 5 -107 9 -259 9
l-258 0 -38 -82z"/>
<path d="M2820 3356 c0 -2 -7 -41 -15 -87 -7 -46 -75 -448 -150 -894 -75 -445
-139 -820 -142 -833 l-5 -23 253 3 253 3 13 80 c65 400 284 1715 288 1733 l5
22 -250 0 c-137 0 -250 -2 -250 -4z"/>
</g>
</svg>
